<?xml version="1.0" encoding="utf-8"?>
<!-- Generator: Adobe Illustrator 22.0.0, SVG Export Plug-In . SVG Version: 6.00 Build 0)  -->
<svg version="1.1" id="圖層_1" xmlns="http://www.w3.org/2000/svg" xmlns:xlink="http://www.w3.org/1999/xlink" x="0px" y="0px"
	 viewBox="0 0 139.5 40.3" style="enable-background:new 0 0 139.5 40.3;" xml:space="preserve">
<style type="text/css">
	.st0{fill:#FEC632;}
	.st1{fill:#29BB9C;}
</style>
<g>
	<polygon class="st0" points="48.5,29.6 64.5,29.6 56.5,40.1 	"/>
	<path class="st1" d="M0,39.7V2.3h8.7v31h21.6v6.4H0z"/>
	<path class="st1" d="M36.4,39.7V12.4h8.2v27.3H36.4z"/>
	<path class="st0" d="M61.2,0v12.6c2.7-2.5,5.8-3.7,9.5-3.7c1.9,0,3.6,0.3,5.1,0.8s2.7,1.3,3.4,2.2c0.8,0.9,1.3,1.8,1.6,2.9
		s0.4,2.7,0.4,4.9v14.6h-8.2V21.2c0-2.6-0.2-4.3-0.5-5c-0.3-0.7-0.9-1.3-1.7-1.7c-0.8-0.4-1.8-0.6-3-0.6c-1.4,0-2.6,0.3-3.7,0.8
		c-1.1,0.5-1.9,1.3-2.4,2.4c-0.5,1.1-0.7,2.6-0.7,4.7v12.4H53V0H61.2z"/>
	<path class="st1" d="M89.7,39.7V12.4h8.2v27.3H89.7z"/>
	<path class="st1" d="M115.3,40V25.3h4.4V40H115.3z"/>
	<path class="st1" d="M123.3,32.4c0-1.3,0.3-2.5,1-3.8c0.7-1.2,1.6-2.1,2.9-2.8c1.2-0.6,2.6-1,4.2-1c2.4,0,4.3,0.7,5.8,2.2
		c1.5,1.4,2.3,3.3,2.3,5.5c0,2.2-0.8,4.1-2.3,5.5c-1.5,1.5-3.5,2.2-5.8,2.2c-1.4,0-2.8-0.3-4.1-0.9c-1.3-0.6-2.3-1.5-3-2.7
		C123.6,35.5,123.3,34.1,123.3,32.4z M127.5,32.6c0,1.5,0.4,2.6,1.1,3.4c0.7,0.8,1.6,1.2,2.7,1.2s2-0.4,2.7-1.2
		c0.7-0.8,1.1-1.9,1.1-3.4c0-1.4-0.4-2.6-1.1-3.3c-0.7-0.8-1.6-1.2-2.7-1.2s-2,0.4-2.7,1.2C127.9,30.1,127.5,31.2,127.5,32.6z"/>
	<polygon class="st0" points="69.5,29.6 85.5,29.6 77.5,40.1 	"/>
	<path class="st1" d="M45.5,4.8c0,2.9-2.1,4.9-4.8,4.9c-2.7,0-4.8-2-4.8-4.9C35.8,2,37.9,0,40.7,0C43.4,0,45.5,2,45.5,4.8z"/>
	<path class="st1" d="M98.5,4.8c0,2.9-2.1,4.9-4.8,4.9c-2.7,0-4.8-2-4.8-4.9C88.8,2,90.9,0,93.7,0C96.4,0,98.5,2,98.5,4.8z"/>
	<path class="st1" d="M120.5,20.8c0,1.7-1.2,2.9-2.8,2.9s-2.8-1.1-2.8-2.9c0-1.6,1.2-2.8,2.8-2.8S120.5,19.1,120.5,20.8z"/>
	<path class="st1" d="M109.5,36.8c0,1.7-1.2,2.9-2.8,2.9s-2.8-1.1-2.8-2.9c0-1.6,1.2-2.8,2.8-2.8S109.5,35.1,109.5,36.8z"/>
</g>
</svg>
